<svg xmlns="http://www.w3.org/2000/svg" width="1100" height="620" viewBox="0 0 1100 620" role="img" aria-labelledby="title desc">
  <title id="title">Mac CPU vs Metal throughput</title>
  <desc id="desc">Grouped bar chart comparing Apple M5 Max CPU-only and Metal throughput across the benchmark matrix.</desc>
  <rect width="1100" height="620" fill="#ffffff"/>
  <text x="48" y="54" font-family="Arial, sans-serif" font-size="28" font-weight="700" fill="#111827">Apple M5 Max: CPU vs Metal</text>
  <text x="48" y="84" font-family="Arial, sans-serif" font-size="15" fill="#4b5563">Standard llama.cpp on Qwen3.5-35B-A3B-Q5_K_S.gguf</text>
  <g font-family="Arial, sans-serif" font-size="13" fill="#6b7280">
    <text x="110" y="510" text-anchor="end">0</text>
    <text x="110" y="430" text-anchor="end">750</text>
    <text x="110" y="350" text-anchor="end">1500</text>
    <text x="110" y="270" text-anchor="end">2250</text>
    <text x="110" y="190" text-anchor="end">3000 tok/s</text>
  </g>
  <g stroke="#e5e7eb" stroke-width="1">
    <line x1="130" y1="505" x2="1040" y2="505"/>
    <line x1="130" y1="425" x2="1040" y2="425"/>
    <line x1="130" y1="345" x2="1040" y2="345"/>
    <line x1="130" y1="265" x2="1040" y2="265"/>
    <line x1="130" y1="185" x2="1040" y2="185"/>
  </g>
  <line x1="130" y1="505" x2="1040" y2="505" stroke="#9ca3af"/>
  <line x1="130" y1="185" x2="130" y2="505" stroke="#9ca3af"/>
  <rect x="792" y="40" width="18" height="18" fill="#7c3aed"/>
  <text x="818" y="55" font-family="Arial, sans-serif" font-size="14" fill="#111827">Mac CPU</text>
  <rect x="910" y="40" width="18" height="18" fill="#16a34a"/>
  <text x="936" y="55" font-family="Arial, sans-serif" font-size="14" fill="#111827">Mac Metal</text>
  <g>
    <rect x="168" y="491.3" width="46" height="13.7" rx="3" fill="#7c3aed"/>
    <rect x="218" y="186.1" width="46" height="318.9" rx="3" fill="#16a34a"/>
    <text x="216" y="535" font-family="Arial, sans-serif" font-size="12" text-anchor="middle" fill="#111827">Prompt 512</text>
  </g>
  <g>
    <rect x="338" y="492.5" width="46" height="12.5" rx="3" fill="#7c3aed"/>
    <rect x="388" y="196.3" width="46" height="308.7" rx="3" fill="#16a34a"/>
    <text x="386" y="535" font-family="Arial, sans-serif" font-size="12" text-anchor="middle" fill="#111827">Prompt 2048</text>
  </g>
  <g>
    <rect x="508" y="499.8" width="46" height="5.2" rx="3" fill="#7c3aed"/>
    <rect x="558" y="494.8" width="46" height="10.2" rx="3" fill="#16a34a"/>
    <text x="556" y="535" font-family="Arial, sans-serif" font-size="12" text-anchor="middle" fill="#111827">Decode 128</text>
  </g>
  <g>
    <rect x="678" y="495.3" width="46" height="9.7" rx="3" fill="#7c3aed"/>
    <rect x="728" y="461.1" width="46" height="43.9" rx="3" fill="#16a34a"/>
    <text x="726" y="535" font-family="Arial, sans-serif" font-size="12" text-anchor="middle" fill="#111827">512 + 128</text>
  </g>
  <g>
    <rect x="848" y="493.5" width="46" height="11.5" rx="3" fill="#7c3aed"/>
    <rect x="898" y="405.5" width="46" height="99.5" rx="3" fill="#16a34a"/>
    <text x="896" y="535" font-family="Arial, sans-serif" font-size="12" text-anchor="middle" fill="#111827">2048 + 128</text>
  </g>
  <text x="548" y="585" font-family="Arial, sans-serif" font-size="14" text-anchor="middle" fill="#4b5563">Metal is much faster for prompt processing; decode improves from 48.74 tok/s CPU to 95.98 tok/s Metal.</text>
</svg>
